<svg xmlns="http://www.w3.org/2000/svg" viewBox="0 0 113.27 38.89"><defs><style>.cls-1{fill:#37b6bb;}.cls-2{fill:#e93e35;}.cls-3{fill:#acacac;}.cls-4{fill:#595a5c;}</style></defs><g id="Layer_2" data-name="Layer 2"><g id="Layer_1-2" data-name="Layer 1"><path class="cls-1" d="M29.47,15.17a14.1,14.1,0,0,0-.07,19.16l22.27-9.59Z"/><path class="cls-2" d="M53.41,25.49,30.47,35.38a14.09,14.09,0,0,0,23.37-9.71c0-.12,0-.24,0-.37Zm-13.64,12a12.68,12.68,0,0,1-6.54-1.81l19-8.17A12.73,12.73,0,0,1,39.77,37.5Z"/><path class="cls-3" d="M53.83,23.81a14.08,14.08,0,0,0-23.27-9.67L53.42,24l.43.19C53.85,24.05,53.84,23.93,53.83,23.81Zm-20.49-10a12.72,12.72,0,0,1,18.82,8.11Z"/><path class="cls-4" d="M24.83,11.41A137.09,137.09,0,0,1,20,26.21q-2.78,7.08-5.36,12.68H10.2Q7.61,33.28,4.84,26.21A137.1,137.1,0,0,1,0,11.41H5.28q.64,2.6,1.51,5.53t1.85,5.81c.65,1.92,1.31,3.77,2,5.57s1.3,3.4,1.9,4.81q.9-2.12,1.9-4.81c.67-1.8,1.33-3.65,2-5.57s1.27-3.86,1.85-5.81,1.08-3.8,1.5-5.53Z"/><path class="cls-4" d="M60.14,6.45a3.18,3.18,0,0,1-2.25-.88A3.09,3.09,0,0,1,57,3.22,3.1,3.1,0,0,1,57.89.87,3.17,3.17,0,0,1,60.14,0a3.13,3.13,0,0,1,2.24.87,3.07,3.07,0,0,1,.93,2.35,3.06,3.06,0,0,1-.93,2.35A3.14,3.14,0,0,1,60.14,6.45Zm2.48,32.44H57.71V11.41h4.91Z"/><path class="cls-4" d="M79.11,10.83c.42,0,.9,0,1.45.08s1.08.12,1.61.21l1.46.26a10,10,0,0,1,1,.24l-.85,4.29a17.72,17.72,0,0,0-1.93-.51,17.17,17.17,0,0,0-3.46-.29,13.09,13.09,0,0,0-2.72.29l-1.77.4V38.89H69V12.57a35.7,35.7,0,0,1,4.33-1.19A28.46,28.46,0,0,1,79.11,10.83Z"/><path class="cls-4" d="M99.18,10.71A14.09,14.09,0,1,0,113.27,24.8,14.09,14.09,0,0,0,99.18,10.71Zm0,23.3a9.22,9.22,0,1,1,9.22-9.21A9.21,9.21,0,0,1,99.18,34Z"/></g></g></svg>