<svg width="267" height="50" viewBox="0 0 267 50" fill="none" xmlns="http://www.w3.org/2000/svg">
<g clip-path="url(#clip0_78_635)">
<path d="M24.58 29.873H11.2478L9.11141 36.2846H0L12.9227 0H23.0018L35.9246 36.2846H26.7164L24.58 29.873ZM22.3393 23.0531L17.9102 9.76864L13.5331 23.0531H22.3393Z" fill="#004FE8"/>
<path d="M45.3412 35.4075C43.4058 34.5456 41.8797 33.3661 40.7631 31.869C39.6465 30.372 39.0138 28.6935 38.8798 26.8259H47.4776C47.5818 27.824 48.0359 28.633 48.8547 29.253C49.6661 29.873 50.6711 30.183 51.8546 30.183C52.9415 30.183 53.7826 29.9713 54.3707 29.5403C54.9662 29.1093 55.264 28.5498 55.264 27.8618C55.264 27.0376 54.8397 26.4252 53.9911 26.0245C53.1425 25.6313 51.7653 25.1928 49.8671 24.7089C47.8349 24.225 46.1377 23.7184 44.7754 23.1816C43.4206 22.6448 42.2445 21.8055 41.2619 20.6487C40.2793 19.4919 39.788 17.9344 39.788 15.9685C39.788 14.3127 40.2346 12.8081 41.1353 11.4471C42.0361 10.0862 43.3536 9.01255 45.103 8.21866C46.8523 7.42477 48.9292 7.0316 51.3336 7.0316C54.8992 7.0316 57.7056 7.93134 59.7527 9.71571C61.8072 11.5076 62.9834 13.8817 63.2886 16.8456H55.2491C55.1151 15.8476 54.6834 15.0537 53.9538 14.4715C53.2243 13.8893 52.2641 13.5944 51.0805 13.5944C50.0607 13.5944 49.279 13.791 48.7431 14.1917C48.1997 14.5849 47.9317 15.1293 47.9317 15.8173C47.9317 16.6415 48.3634 17.2615 49.2269 17.6773C50.0904 18.0931 51.4378 18.5014 53.269 18.9173C55.3756 19.4692 57.0878 20.0136 58.4053 20.5429C59.7304 21.0797 60.8916 21.9416 61.8891 23.1287C62.8866 24.3157 63.4077 25.9111 63.4375 27.9072C63.4375 29.5932 62.9685 31.1054 62.038 32.4285C61.1075 33.7517 59.7676 34.7951 58.0182 35.5587C56.2689 36.3148 54.2442 36.6929 51.9365 36.6929C49.48 36.7004 47.2766 36.2695 45.3412 35.4075Z" fill="#004FE8"/>
<path d="M74.2982 35.4075C72.3627 34.5456 70.8367 33.3661 69.7201 31.869C68.6035 30.372 67.9708 28.6935 67.8368 26.8259H76.4346C76.5388 27.824 76.9929 28.633 77.8117 29.253C78.6231 29.873 79.628 30.183 80.8116 30.183C81.8984 30.183 82.7396 29.9713 83.3277 29.5403C83.9232 29.1093 84.221 28.5498 84.221 27.8618C84.221 27.0376 83.7966 26.4252 82.948 26.0245C82.0994 25.6313 80.7223 25.1928 78.8241 24.7089C76.7919 24.225 75.0947 23.7184 73.7324 23.1816C72.3776 22.6448 71.2015 21.8055 70.2189 20.6487C69.2363 19.4919 68.745 17.9344 68.745 15.9685C68.745 14.3127 69.1916 12.8081 70.0923 11.4471C70.993 10.0862 72.3106 9.01255 74.0599 8.21866C75.8093 7.42477 77.8861 7.0316 80.2905 7.0316C83.8562 7.0316 86.6626 7.93134 88.7097 9.71571C90.7642 11.5076 91.9403 13.8817 92.2455 16.8456H84.2061C84.0721 15.8476 83.6403 15.0537 82.9108 14.4715C82.1813 13.8893 81.221 13.5944 80.0374 13.5944C79.0176 13.5944 78.236 13.791 77.7 14.1917C77.1566 14.5849 76.8887 15.1293 76.8887 15.8173C76.8887 16.6415 77.3204 17.2615 78.1839 17.6773C79.0474 18.0931 80.3948 18.5014 82.226 18.9173C84.3326 19.4692 86.0447 20.0136 87.3623 20.5429C88.6873 21.0797 89.8486 21.9416 90.8461 23.1287C91.8436 24.3157 92.3646 25.9111 92.3944 27.9072C92.3944 29.5932 91.9254 31.1054 90.995 32.4285C90.0645 33.7517 88.7245 34.7951 86.9752 35.5587C85.2259 36.3148 83.2011 36.6929 80.8935 36.6929C78.437 36.7004 76.2261 36.2695 74.2982 35.4075Z" fill="#004FE8"/>
<path d="M127.321 7.4399L109.508 49.9773H100.144L106.657 35.3017L95.1115 7.4399H104.833L111.399 25.4801L117.912 7.4399H127.321Z" fill="#004FE8"/>
<path d="M135.971 35.4075C134.036 34.5456 132.51 33.3661 131.393 31.869C130.277 30.372 129.644 28.6935 129.51 26.8259H138.108C138.212 27.824 138.666 28.633 139.485 29.253C140.296 29.873 141.301 30.183 142.485 30.183C143.572 30.183 144.413 29.9713 145.001 29.5403C145.596 29.1093 145.894 28.5498 145.894 27.8618C145.894 27.0376 145.47 26.4252 144.621 26.0245C143.773 25.6313 142.396 25.1928 140.497 24.7089C138.465 24.225 136.768 23.7184 135.406 23.1816C134.051 22.6448 132.875 21.8055 131.892 20.6487C130.91 19.4919 130.418 17.9344 130.418 15.9685C130.418 14.3127 130.865 12.8081 131.766 11.4471C132.666 10.0862 133.984 9.01255 135.733 8.21866C137.483 7.42477 139.559 7.0316 141.964 7.0316C145.529 7.0316 148.336 7.93134 150.383 9.71571C152.437 11.5076 153.614 13.8817 153.919 16.8456H145.879C145.745 15.8476 145.314 15.0537 144.584 14.4715C143.855 13.8893 142.894 13.5944 141.711 13.5944C140.691 13.5944 139.909 13.791 139.373 14.1917C138.83 14.5849 138.562 15.1293 138.562 15.8173C138.562 16.6415 138.994 17.2615 139.857 17.6773C140.721 18.0931 142.068 18.5014 143.899 18.9173C146.006 19.4692 147.718 20.0136 149.036 20.5429C150.361 21.0797 151.522 21.9416 152.519 23.1287C153.517 24.3157 154.038 25.9111 154.068 27.9072C154.068 29.5932 153.599 31.1054 152.668 32.4285C151.738 33.7517 150.398 34.7951 148.648 35.5587C146.899 36.3148 144.874 36.6929 142.567 36.6929C140.11 36.7004 137.907 36.2695 135.971 35.4075Z" fill="#004FE8"/>
<path d="M175.811 28.7918V36.2846H171.382C168.226 36.2846 165.77 35.4983 164.005 33.9332C162.241 32.3681 161.363 29.8049 161.363 26.2589V14.7815H157.901V7.43989H161.363V0.408287H170.065V7.43989H175.767V14.7815H170.065V26.3572C170.065 27.2191 170.266 27.8391 170.675 28.2172C171.085 28.5952 171.762 28.7842 172.707 28.7842H175.811V28.7918Z" fill="#004FE8"/>
<path d="M181.134 14.0103C182.236 11.7723 183.739 10.0484 185.638 8.83865C187.536 7.63647 189.657 7.0316 191.995 7.0316C193.997 7.0316 195.754 7.44745 197.265 8.27158C198.776 9.09572 199.937 10.1845 200.749 11.5303V7.44745H209.451V36.2922H200.749V32.2093C199.9 33.5551 198.724 34.6363 197.213 35.468C195.702 36.2922 193.945 36.708 191.943 36.708C189.635 36.708 187.536 36.0956 185.63 34.8707C183.732 33.6458 182.228 31.9068 181.126 29.6537C180.025 27.4006 179.474 24.7845 179.474 21.8207C179.481 18.8492 180.032 16.2483 181.134 14.0103ZM198.94 16.6415C197.734 15.3637 196.268 14.7286 194.541 14.7286C192.814 14.7286 191.34 15.3561 190.141 16.6188C188.935 17.8739 188.332 19.6053 188.332 21.8131C188.332 24.0209 188.935 25.7674 190.141 27.0603C191.347 28.3532 192.814 28.9959 194.541 28.9959C196.268 28.9959 197.734 28.3608 198.94 27.083C200.146 25.8052 200.749 24.0662 200.749 21.866C200.749 19.6582 200.146 17.9192 198.94 16.6415Z" fill="#004FE8"/>
<path d="M241.586 10.4113C243.574 12.5964 244.564 15.6056 244.564 19.4314V36.2846H235.914V20.626C235.914 18.698 235.423 17.201 234.44 16.1273C233.458 15.0612 232.132 14.5244 230.472 14.5244C228.812 14.5244 227.487 15.0612 226.505 16.1273C225.522 17.1934 225.031 18.698 225.031 20.626V36.2846H216.322V7.43989H225.024V11.2657C225.902 9.9879 227.093 8.98231 228.589 8.24134C230.078 7.50038 231.76 7.1299 233.629 7.1299C236.949 7.1299 239.599 8.22622 241.586 10.4113Z" fill="#004FE8"/>
<path d="M267 28.7918V36.2846H262.571C259.415 36.2846 256.958 35.4983 255.194 33.9332C253.43 32.3681 252.551 29.8049 252.551 26.2589V14.7815H249.09V7.43989H252.551V0.408287H261.253V7.43989H266.955V14.7815H261.253V26.3572C261.253 27.2191 261.454 27.8391 261.864 28.2172C262.273 28.5952 262.951 28.7842 263.896 28.7842H267V28.7918Z" fill="#004FE8"/>
<path d="M163.447 49.7051C163.023 49.5085 162.68 49.2364 162.442 48.8886C162.196 48.5408 162.07 48.14 162.062 47.6864H163.201C163.239 48.0795 163.402 48.4047 163.678 48.6693C163.953 48.9339 164.363 49.07 164.899 49.07C165.405 49.07 165.814 48.9415 166.105 48.6844C166.402 48.4273 166.544 48.0947 166.544 47.6864C166.544 47.3688 166.454 47.1118 166.283 46.9076C166.112 46.711 165.896 46.5598 165.636 46.454C165.375 46.3481 165.025 46.2423 164.586 46.1213C164.043 45.9776 163.611 45.834 163.283 45.6903C162.956 45.5467 162.68 45.3198 162.45 45.0174C162.219 44.7074 162.1 44.2991 162.1 43.7774C162.1 43.3238 162.211 42.923 162.442 42.5677C162.673 42.2123 162.993 41.9477 163.402 41.7511C163.812 41.5545 164.288 41.4638 164.817 41.4638C165.583 41.4638 166.216 41.6604 166.708 42.046C167.199 42.4316 167.474 42.9533 167.534 43.6035H166.358C166.32 43.286 166.157 43.0062 165.866 42.7643C165.576 42.5223 165.189 42.4013 164.713 42.4013C164.266 42.4013 163.901 42.5223 163.618 42.7567C163.335 42.9911 163.194 43.3238 163.194 43.7396C163.194 44.042 163.276 44.2916 163.447 44.4806C163.618 44.6696 163.827 44.8208 164.072 44.9191C164.318 45.0174 164.668 45.1308 165.115 45.2593C165.658 45.4106 166.09 45.5618 166.417 45.7054C166.745 45.8567 167.028 46.0835 167.266 46.3859C167.504 46.6883 167.616 47.1118 167.616 47.6335C167.616 48.0417 167.511 48.4198 167.296 48.7827C167.087 49.1381 166.767 49.4329 166.358 49.6522C165.941 49.879 165.449 49.9849 164.884 49.9849C164.363 49.9924 163.871 49.9017 163.447 49.7051Z" fill="#737373"/>
<path d="M175.082 41.5848L172.41 46.7715V49.9168H171.338V46.7715L168.658 41.5848H169.849L171.874 45.8037L173.891 41.5848H175.082Z" fill="#737373"/>
<path d="M177.486 49.7051C177.062 49.5085 176.72 49.2364 176.481 48.8886C176.236 48.5408 176.109 48.14 176.102 47.6864H177.241C177.278 48.0795 177.442 48.4047 177.717 48.6693C177.993 48.9339 178.402 49.07 178.938 49.07C179.444 49.07 179.854 48.9415 180.144 48.6844C180.442 48.4273 180.583 48.0947 180.583 47.6864C180.583 47.3688 180.494 47.1118 180.323 46.9076C180.151 46.711 179.935 46.5598 179.675 46.454C179.414 46.3481 179.065 46.2423 178.625 46.1213C178.082 45.9776 177.65 45.834 177.323 45.6903C176.995 45.5467 176.72 45.3198 176.489 45.0174C176.258 44.7074 176.139 44.2991 176.139 43.7774C176.139 43.3238 176.251 42.923 176.481 42.5677C176.712 42.2123 177.032 41.9477 177.442 41.7511C177.851 41.5545 178.328 41.4638 178.856 41.4638C179.623 41.4638 180.256 41.6604 180.747 42.046C181.238 42.4316 181.514 42.9533 181.573 43.6035H180.397C180.36 43.286 180.196 43.0062 179.906 42.7643C179.615 42.5223 179.228 42.4013 178.752 42.4013C178.305 42.4013 177.94 42.5223 177.658 42.7567C177.375 42.9911 177.233 43.3238 177.233 43.7396C177.233 44.042 177.315 44.2916 177.486 44.4806C177.658 44.6696 177.866 44.8208 178.112 44.9191C178.357 45.0174 178.707 45.1308 179.154 45.2593C179.697 45.4106 180.129 45.5618 180.457 45.7054C180.784 45.8567 181.067 46.0835 181.305 46.3859C181.543 46.6883 181.655 47.1118 181.655 47.6335C181.655 48.0417 181.551 48.4198 181.335 48.7827C181.126 49.1381 180.806 49.4329 180.397 49.6522C179.98 49.879 179.489 49.9849 178.923 49.9849C178.402 49.9924 177.911 49.9017 177.486 49.7051Z" fill="#737373"/>
<path d="M188.429 41.5848V42.4694H186.196V49.9168H185.124V42.4694H182.876V41.5848H188.429Z" fill="#737373"/>
<path d="M190.945 42.4694V45.2518H193.938V46.1515H190.945V49.0171H194.287V49.9168H189.873V41.5696H194.287V42.4694H190.945Z" fill="#737373"/>
<path d="M204.359 41.6377V49.9093H203.287V43.7396L200.578 49.9093H199.826L197.109 43.732V49.9093H196.037V41.6377H197.191L200.205 48.4727L203.22 41.6377H204.359Z" fill="#737373"/>
<path d="M207.448 49.7051C207.024 49.5085 206.682 49.2364 206.443 48.8886C206.198 48.5408 206.071 48.14 206.064 47.6864H207.203C207.24 48.0795 207.404 48.4047 207.679 48.6693C207.955 48.9339 208.364 49.07 208.9 49.07C209.414 49.07 209.816 48.9415 210.106 48.6844C210.396 48.4273 210.545 48.0947 210.545 47.6864C210.545 47.3688 210.456 47.1118 210.284 46.9076C210.113 46.711 209.897 46.5598 209.637 46.454C209.376 46.3481 209.026 46.2423 208.587 46.1213C208.044 45.9776 207.612 45.834 207.285 45.6903C206.957 45.5467 206.682 45.3198 206.451 45.0174C206.22 44.7074 206.101 44.2991 206.101 43.7774C206.101 43.3238 206.213 42.923 206.443 42.5677C206.674 42.2123 206.994 41.9477 207.404 41.7511C207.813 41.5621 208.289 41.4638 208.825 41.4638C209.592 41.4638 210.225 41.6604 210.716 42.046C211.208 42.4391 211.483 42.9533 211.542 43.6035H210.366C210.329 43.286 210.165 43.0062 209.875 42.7643C209.585 42.5223 209.198 42.4013 208.721 42.4013C208.275 42.4013 207.91 42.5223 207.627 42.7567C207.344 42.9911 207.203 43.3238 207.203 43.7396C207.203 44.042 207.285 44.2916 207.456 44.4806C207.627 44.6696 207.835 44.8208 208.081 44.9191C208.327 45.0174 208.677 45.1308 209.123 45.2593C209.667 45.4106 210.098 45.5618 210.426 45.7054C210.753 45.8567 211.036 46.0835 211.275 46.3859C211.513 46.6959 211.624 47.1118 211.624 47.6335C211.624 48.0417 211.52 48.4198 211.304 48.7827C211.096 49.1381 210.776 49.4329 210.366 49.6522C209.949 49.879 209.458 49.9849 208.892 49.9849C208.364 49.9924 207.88 49.9017 207.448 49.7051Z" fill="#737373"/>
<path d="M221.391 45.7432C220.922 46.2044 220.215 46.4313 219.254 46.4313H217.676V49.9093H216.604V41.5848H219.254C220.178 41.5848 220.885 41.8116 221.369 42.2652C221.852 42.7189 222.091 43.3086 222.091 44.0194C222.098 44.715 221.86 45.2896 221.391 45.7432ZM220.579 45.1459C220.862 44.8813 221.004 44.5108 221.004 44.0194C221.004 42.9911 220.423 42.4769 219.262 42.4769H217.684V45.5391H219.262C219.857 45.5391 220.297 45.403 220.579 45.1459Z" fill="#737373"/>
<path d="M225.187 49.4556C224.562 49.0927 224.063 48.5861 223.699 47.9359C223.334 47.2857 223.148 46.5522 223.148 45.7432C223.148 44.9342 223.334 44.2008 223.699 43.5506C224.063 42.9003 224.562 42.3938 225.187 42.0308C225.813 41.6679 226.512 41.4865 227.272 41.4865C228.038 41.4865 228.738 41.6679 229.363 42.0308C229.989 42.3938 230.487 42.9003 230.845 43.543C231.202 44.1857 231.388 44.9191 231.388 45.7432C231.388 46.5674 231.209 47.3008 230.845 47.9434C230.48 48.5861 229.989 49.0927 229.363 49.4556C228.738 49.8185 228.038 50 227.272 50C226.512 49.9924 225.82 49.8185 225.187 49.4556ZM228.82 48.6466C229.281 48.3744 229.639 47.9888 229.899 47.4898C230.16 46.9908 230.294 46.4086 230.294 45.7432C230.294 45.0703 230.16 44.4881 229.899 43.9891C229.639 43.4901 229.281 43.1045 228.82 42.8323C228.366 42.5601 227.845 42.424 227.264 42.424C226.684 42.424 226.162 42.5601 225.708 42.8323C225.254 43.1045 224.897 43.4901 224.629 43.9891C224.368 44.4881 224.234 45.0703 224.234 45.7432C224.234 46.4086 224.368 46.9832 224.629 47.4898C224.89 47.9888 225.254 48.382 225.708 48.6466C226.17 48.9188 226.684 49.0549 227.257 49.0549C227.83 49.0549 228.358 48.9188 228.82 48.6466Z" fill="#737373"/>
<path d="M234.083 49.7051C233.659 49.5085 233.316 49.2364 233.078 48.8886C232.832 48.5408 232.706 48.14 232.698 47.6864H233.837C233.874 48.0795 234.038 48.4047 234.314 48.6693C234.589 48.9339 234.998 49.07 235.534 49.07C236.048 49.07 236.45 48.9415 236.74 48.6844C237.031 48.4273 237.179 48.0947 237.179 47.6864C237.179 47.3688 237.09 47.1118 236.919 46.9076C236.748 46.711 236.532 46.5598 236.271 46.454C236.011 46.3481 235.661 46.2423 235.222 46.1213C234.678 45.9776 234.247 45.834 233.919 45.6903C233.592 45.5467 233.316 45.3198 233.085 45.0174C232.855 44.7074 232.735 44.2991 232.735 43.7774C232.735 43.3238 232.847 42.923 233.078 42.5677C233.309 42.2123 233.629 41.9477 234.038 41.7511C234.448 41.5621 234.924 41.4638 235.46 41.4638C236.227 41.4638 236.859 41.6604 237.351 42.046C237.842 42.4391 238.117 42.9533 238.177 43.6035H237.001C236.964 43.286 236.8 43.0062 236.51 42.7643C236.219 42.5223 235.832 42.4013 235.356 42.4013C234.909 42.4013 234.544 42.5223 234.261 42.7567C233.979 42.9911 233.837 43.3238 233.837 43.7396C233.837 44.042 233.919 44.2916 234.09 44.4806C234.261 44.6696 234.47 44.8208 234.716 44.9191C234.961 45.0174 235.311 45.1308 235.758 45.2593C236.301 45.4106 236.733 45.5618 237.06 45.7054C237.388 45.8567 237.671 46.0835 237.909 46.3859C238.147 46.6959 238.259 47.1118 238.259 47.6335C238.259 48.0417 238.155 48.4198 237.939 48.7827C237.73 49.1381 237.41 49.4329 237.001 49.6522C236.584 49.879 236.093 49.9849 235.527 49.9849C234.991 49.9924 234.507 49.9017 234.083 49.7051Z" fill="#737373"/>
<path d="M241.117 49.7051C240.693 49.5085 240.351 49.2364 240.112 48.8886C239.867 48.5408 239.74 48.14 239.733 47.6864H240.872C240.909 48.0795 241.073 48.4047 241.348 48.6693C241.624 48.9339 242.033 49.07 242.569 49.07C243.083 49.07 243.485 48.9415 243.775 48.6844C244.065 48.4273 244.214 48.0947 244.214 47.6864C244.214 47.3688 244.125 47.1118 243.954 46.9076C243.782 46.711 243.566 46.5598 243.306 46.454C243.045 46.3481 242.695 46.2423 242.256 46.1213C241.713 45.9776 241.281 45.834 240.954 45.6903C240.626 45.5467 240.351 45.3198 240.12 45.0174C239.889 44.7074 239.77 44.2991 239.77 43.7774C239.77 43.3238 239.882 42.923 240.112 42.5677C240.343 42.2123 240.663 41.9477 241.073 41.7511C241.482 41.5621 241.959 41.4638 242.495 41.4638C243.261 41.4638 243.894 41.6604 244.385 42.046C244.877 42.4391 245.152 42.9533 245.212 43.6035H244.035C243.998 43.286 243.834 43.0062 243.544 42.7643C243.254 42.5223 242.867 42.4013 242.39 42.4013C241.944 42.4013 241.579 42.5223 241.296 42.7567C241.013 42.9911 240.872 43.3238 240.872 43.7396C240.872 44.042 240.954 44.2916 241.125 44.4806C241.296 44.6696 241.504 44.8208 241.75 44.9191C241.996 45.0174 242.346 45.1308 242.792 45.2593C243.336 45.4106 243.767 45.5618 244.095 45.7054C244.422 45.8567 244.705 46.0835 244.944 46.3859C245.182 46.6959 245.293 47.1118 245.293 47.6335C245.293 48.0417 245.189 48.4198 244.973 48.7827C244.765 49.1381 244.445 49.4329 244.035 49.6522C243.619 49.879 243.127 49.9849 242.562 49.9849C242.033 49.9924 241.549 49.9017 241.117 49.7051Z" fill="#737373"/>
<path d="M248.077 41.5848V49.9168H247.006V41.5848H248.077Z" fill="#737373"/>
<path d="M254.956 45.9927C255.201 46.1893 255.395 46.4388 255.544 46.7337C255.693 47.0286 255.76 47.3461 255.76 47.6788C255.76 48.1022 255.655 48.4803 255.44 48.8205C255.231 49.1607 254.918 49.4254 254.517 49.622C254.115 49.8185 253.638 49.9168 253.087 49.9168H250.028V41.5848H252.968C253.526 41.5848 254.003 41.6755 254.39 41.8645C254.784 42.0535 255.075 42.303 255.276 42.6206C255.469 42.9382 255.574 43.3011 255.574 43.6942C255.574 44.1857 255.44 44.594 255.179 44.9191C254.918 45.2442 254.569 45.4786 254.137 45.6147C254.442 45.6676 254.71 45.7962 254.956 45.9927ZM251.107 45.1762H252.909C253.407 45.1762 253.802 45.0552 254.07 44.8208C254.338 44.5864 254.479 44.2537 254.479 43.8303C254.479 43.4069 254.345 43.0742 254.07 42.8399C253.794 42.5979 253.4 42.4845 252.879 42.4845H251.1V45.1762H251.107ZM254.249 48.6315C254.546 48.3744 254.695 48.0191 254.695 47.5654C254.695 47.1042 254.539 46.7413 254.226 46.4691C253.914 46.2044 253.489 46.0684 252.968 46.0684H251.107V49.0095H252.998C253.534 49.0171 253.951 48.8886 254.249 48.6315Z" fill="#737373"/>
<path d="M258.447 49.0246H261.32V49.9093H257.375V41.5848H258.447V49.0246Z" fill="#737373"/>
<path d="M263.658 42.4694V45.2518H266.65V46.1515H263.658V49.0171H267V49.9168H262.586V41.5696H267V42.4694H263.658Z" fill="#737373"/>
<path d="M159.844 41.4713H150.934V49.9924H159.844V41.4713Z" fill="#182845"/>
</g>
<defs>
<clipPath id="clip0_78_635">
<rect width="267" height="50" fill="white"/>
</clipPath>
</defs>
</svg>
